# xmcd
#
# Track frame offsets:
#       183
#       15250
#       34010
#       47783
#       61200
#       74595
#       87830
#       102725
#       116023
#       128618
#       143380
#       157988
#       171910
#       187073
#       200708
#       212040
#       224840
#       237555
#       249123
#       262090
#
# Disc length: 3645 seconds
#
# Revision: 0
# Processed by: cddbd v1.5PL3 Copyright (c) Steve Scherf et al.
# Submitted via: WhereIsIt 3.11
#
DISCID=2b0e3b14
DTITLE=Various Artist - The Classic Bluesmen (Volume 2)
DYEAR=1900
DGENRE=
TTITLE0=Roosevelt Sykes - Jivin' Jive
TTITLE1=Leadbelly - Easy Rider
TTITLE2=Big Bill Broonzy - Key To The Highway
TTITLE3=Bukka White - Black Train Blues
TTITLE4=Robert Johnson - I Believe I'll Dust My Broom
TTITLE5=Leroy Carr - Mean Mistreater Mama
TTITLE6=Lonnie Johnson -Four HandsAre Better Than Two
TTITLE7=Tampa Red - Denver Blues
TTITLE8=Big Bill Broonzy - I Can't Be Satisfied
TTITLE9=Barbeque Bob - Motherless Child Blues
TTITLE10=Arthur "Big Boy" Crudup - Dead Valley Blues
TTITLE11=Blind Willie McTell - Georgia Rag
TTITLE12=Blind Willie Johnson - Dark Was The Night Cold Was The Ground
TTITLE13=Blind Boy Fuller - My Brownskin Sugar Plum
TTITLE14=Robert Johnson - Walkin' Blues
TTITLE15=Big Joe Turner - Sun Rising Blues
TTITLE16=Champion Jack Dupree - Warehouse Man Blues
TTITLE17=Sonny Boy Williamson - Got The Bottle Up And Go
TTITLE18=Brownie McGhee - Born For Bad Luck
TTITLE19=Sleepy John Estes - Little laura Blues
EXTD=
EXTT0=
EXTT1=
EXTT2=
EXTT3=
EXTT4=
EXTT5=
EXTT6=
EXTT7=
EXTT8=
EXTT9=
EXTT10=
EXTT11=
EXTT12=
EXTT13=
EXTT14=
EXTT15=
EXTT16=
EXTT17=
EXTT18=
EXTT19=
PLAYORDER=
